<svg width="70" height="43" viewBox="0 0 70 43" fill="none" xmlns="http://www.w3.org/2000/svg">
<path d="M69.9434 6.13236C69.8058 5.87727 69.4418 5.69081 69.002 5.6519L64.823 5.28379L62.9528 2.99045C62.5608 2.50717 61.2529 2.50717 60.8609 2.99045L58.9907 5.28379L54.8116 5.65198C54.3718 5.69081 54.0078 5.87669 53.8689 6.13244C53.7325 6.3882 53.8455 6.66937 54.1641 6.85665L57.1893 8.64205L56.4754 11.1629C56.4007 11.4279 56.5804 11.6956 56.9386 11.8539C57.3014 12.0136 57.775 12.0333 58.1682 11.9076L61.9063 10.7171L65.6444 11.9076C65.8147 11.962 66.0026 11.9888 66.1881 11.9888C66.4296 11.9888 66.6712 11.9436 66.8742 11.8538C67.2335 11.6956 67.4131 11.4278 67.3374 11.1628L66.6235 8.64197L69.6487 6.85657C69.9656 6.66863 70.08 6.38812 69.9434 6.13236ZM64.5558 7.89019C64.2817 8.05197 64.1556 8.28653 64.221 8.51546L64.6387 9.99136L62.45 9.29473C62.2797 9.24033 62.0931 9.2135 61.9063 9.2135C61.7197 9.2135 61.5342 9.24033 61.3626 9.29473L59.1738 9.99136L59.5915 8.51546C59.6568 8.28653 59.5308 8.05271 59.2567 7.89019L57.4845 6.84457L59.9322 6.62905C60.3126 6.59585 60.6404 6.45104 60.8108 6.24256L61.9051 4.9002L62.9994 6.24256C63.1697 6.45096 63.4976 6.59585 63.878 6.62905L66.3257 6.84457L64.5558 7.89019Z" fill="#2196F3"/>
<path d="M57.1669 27.3253H54.8335V28.7384H57.1669V27.3253Z" fill="#2196F3"/>
<path d="M57.1669 30.1518H54.8335V31.5648H57.1669V30.1518Z" fill="#2196F3"/>
<path d="M59.5004 28.7385H57.167V30.1516H59.5004V28.7385Z" fill="#2196F3"/>
<path d="M54.8339 28.7385H52.5005V30.1516H54.8339V28.7385Z" fill="#2196F3"/>
<path d="M49.0004 35.0971H46.667V36.5102H49.0004V35.0971Z" fill="#2196F3"/>
<path d="M49.0004 37.9231H46.667V39.3362H49.0004V37.9231Z" fill="#2196F3"/>
<path d="M51.3334 36.5104H49V37.9234H51.3334V36.5104Z" fill="#2196F3"/>
<path d="M46.6669 36.5104H44.3335V37.9234H46.6669V36.5104Z" fill="#2196F3"/>
<path d="M34.9999 32.2711H32.6665V33.6842H34.9999V32.2711Z" fill="#2196F3"/>
<path d="M34.9999 35.0971H32.6665V36.5102H34.9999V35.0971Z" fill="#2196F3"/>
<path d="M37.3334 33.6839H35V35.097H37.3334V33.6839Z" fill="#2196F3"/>
<path d="M32.6664 33.6839H30.333V35.097H32.6664V33.6839Z" fill="#2196F3"/>
<path d="M12.8329 8.24951H10.4995V9.66258H12.8329V8.24951Z" fill="#2196F3"/>
<path d="M12.8329 11.0755H10.4995V12.4886H12.8329V11.0755Z" fill="#2196F3"/>
<path d="M15.1664 9.66229H12.833V11.0754H15.1664V9.66229Z" fill="#2196F3"/>
<path d="M10.4994 9.66229H8.16602V11.0754H10.4994V9.66229Z" fill="#2196F3"/>
<path d="M54.0635 18.8967C53.4347 18.383 52.5119 18.0524 51.4642 17.9633C50.4118 17.8729 49.3734 18.0403 48.5334 18.4296L45.7952 19.7006L45.794 19.7014L41.6428 21.5786L38.6724 20.8622C43.9691 19.423 47.6711 16.2147 47.6711 12.4899C47.6711 7.42559 40.8401 3.30521 32.4436 3.30521C24.047 3.30521 17.2161 7.42559 17.2161 12.4899C17.2161 14.3255 18.1226 16.0324 19.6662 17.4687L13.6204 17.4369C13.6168 17.4369 13.6134 17.4369 13.6099 17.4369C13.5911 17.4369 13.5761 17.4426 13.5586 17.4433C13.4431 17.4461 13.3298 17.4603 13.2191 17.4843C13.1911 17.4907 13.162 17.4942 13.1352 17.5019C13.1212 17.5055 13.1071 17.5061 13.0932 17.5104L6.02075 19.6249C6.01952 19.6249 6.01843 19.6249 6.01843 19.6256L1.8766 20.8318C1.83107 20.8438 1.78445 20.86 1.73892 20.8784C0.0880191 21.5439 -0.474314 22.851 0.429958 23.9192C0.911763 24.4873 1.73195 24.9055 2.73999 25.097C3.12856 25.1704 3.52518 25.2065 3.91949 25.2065C4.55305 25.2065 5.18074 25.1125 5.75578 24.9267L8.79154 23.9489L13.7441 22.4002L16.7122 22.3896L4.80844 29.5637C4.80735 29.5644 4.80612 29.5644 4.80489 29.5651L1.87647 31.3313C1.18466 31.7482 0.8043 32.3014 0.8043 32.8914C0.8043 33.4806 1.18466 34.0352 1.87647 34.4528C2.587 34.8809 3.52149 35.0957 4.45598 35.0957C5.3917 35.0957 6.32495 34.8809 7.03782 34.4528L9.91251 32.719L13.7206 30.9972L15.6912 32.1855L11.8375 34.5093C11.8364 34.51 11.8352 34.51 11.834 34.5107L8.90556 36.2769C8.21375 36.6938 7.8334 37.247 7.8334 37.837C7.8334 38.4262 8.21375 38.9808 8.90556 39.3984C9.6161 39.8265 10.5518 40.0413 11.4863 40.0413C12.4208 40.0413 13.3565 39.8265 14.0681 39.3984L16.9977 37.6321L21.6842 34.8061C21.6854 34.8053 21.6854 34.8047 21.6865 34.8039L23.8951 33.4792L23.8869 33.4742C23.9008 33.4658 23.9207 33.4629 23.9347 33.4538L35.2353 25.9584L42.8281 26.6126C42.8829 26.6176 42.9377 26.6196 42.9925 26.6196C43.1338 26.6196 43.2702 26.5992 43.402 26.5688C43.4406 26.5604 43.4743 26.549 43.5106 26.5378C43.5526 26.525 43.5968 26.518 43.6366 26.5017L50.6659 23.6757C50.6916 23.6651 50.7055 23.6481 50.73 23.6369C50.758 23.6235 50.793 23.6178 50.8186 23.6029L53.5999 22.0253C55.0471 21.2041 55.2466 19.8589 54.0635 18.8967ZM4.66024 23.6798C4.28111 23.8027 3.85058 23.8274 3.43878 23.7483C3.03039 23.6713 2.69912 23.5024 2.50538 23.2742C2.15305 22.8588 2.35718 22.3529 2.97433 22.0795L5.84793 21.2423L6.53974 22.4666L6.83027 22.981L4.66024 23.6798ZM12.3102 21.2586L8.92333 22.3184L8.36456 21.3292L7.96328 20.6184L12.3967 19.2929L12.3102 21.2586ZM45.3402 12.4885C45.3402 13.7051 44.8607 14.8526 44.03 15.879L34.8832 13.3632C34.7875 12.6037 34.1366 11.9388 33.1589 11.5248L36.3614 5.08629C41.5626 6.0882 45.3402 9.0266 45.3402 12.4885ZM19.5519 12.4885C19.5519 8.20345 25.3363 4.71678 32.446 4.71678C32.9991 4.71678 33.5403 4.74501 34.0759 4.786L30.9433 11.0832C30.9014 11.0825 30.8617 11.0754 30.8185 11.0754C28.5597 11.0754 26.7222 12.1846 26.7222 13.5483C26.7222 14.9118 28.5597 16.0211 30.8185 16.0211C32.3375 16.0211 33.65 15.5132 34.3582 14.7698L42.8073 17.0943C40.4564 19.0104 36.6938 20.2602 32.4459 20.2602C25.3363 20.2602 19.5519 16.7736 19.5519 12.4885ZM32.5814 13.5483C32.5814 14.1326 31.7903 14.6081 30.8185 14.6081C29.8467 14.6081 29.0556 14.1326 29.0556 13.5483C29.0556 12.964 29.8467 12.4885 30.8185 12.4885C31.7903 12.4885 32.5814 12.964 32.5814 13.5483ZM5.39183 33.4509C4.87503 33.7611 4.03843 33.7604 3.52286 33.4516C3.2743 33.3011 3.13785 33.1027 3.13785 32.8914C3.13785 32.6808 3.2743 32.4823 3.52286 32.3332L5.6274 31.0636L7.48941 32.1863L5.39183 33.4509ZM12.4222 38.3966C11.9054 38.7067 11.0677 38.7075 10.552 38.3973C10.3034 38.2468 10.1669 38.0483 10.1669 37.8371C10.1669 37.6265 10.3034 37.428 10.552 37.2789L12.6579 36.0086L13.5388 36.5392L14.5211 37.1313L12.4222 38.3966ZM20.0383 33.8014C20.0371 33.802 20.036 33.802 20.0348 33.8028L16.1742 36.1343L15.2933 35.6037L14.311 35.0116L18.168 32.6865C18.168 32.6865 18.168 32.6865 18.168 32.6858C18.1692 32.685 18.1703 32.685 18.1715 32.6844C18.259 32.6314 18.3139 32.5678 18.3676 32.505C18.3828 32.4866 18.4119 32.471 18.4248 32.452C18.461 32.3976 18.4667 32.339 18.4808 32.2817C18.4878 32.2491 18.5112 32.2188 18.5112 32.1855C18.5112 32.1382 18.4831 32.0923 18.4669 32.0456C18.4529 32.0032 18.4529 31.9601 18.426 31.9192C18.3817 31.8528 18.3058 31.7942 18.2265 31.7369C18.2044 31.7213 18.1962 31.7015 18.1717 31.6867C18.1717 31.6867 18.1717 31.6867 18.1705 31.6867C18.1692 31.686 18.1692 31.6846 18.1681 31.6839L14.6529 29.5643C14.6156 29.5417 14.5677 29.5325 14.5257 29.5135C14.4639 29.4845 14.4045 29.4577 14.3356 29.4372C14.2691 29.4174 14.2014 29.4054 14.1314 29.394C14.0568 29.3813 13.9845 29.3714 13.9063 29.3679C13.835 29.365 13.7686 29.3693 13.6975 29.3742C13.6193 29.3799 13.5459 29.3862 13.47 29.4011C13.3964 29.4152 13.3312 29.4371 13.2635 29.4604C13.2203 29.4752 13.1714 29.4802 13.1305 29.4986L9.25133 31.2522L7.28077 30.0638L12.5285 26.9029L22.0674 32.584L20.0383 33.8014ZM34.9544 24.5064C34.9207 24.5036 34.8891 24.5113 34.8553 24.5099C34.7701 24.5071 34.6885 24.5107 34.6033 24.5191C34.5369 24.5262 34.4739 24.534 34.4108 24.5474C34.3362 24.5629 34.2685 24.5841 34.1996 24.6095C34.1343 24.6336 34.0748 24.659 34.0176 24.6908C33.9896 24.7056 33.9558 24.7127 33.9301 24.7296L23.6527 31.5461L14.185 25.9074L20.3825 22.1741C20.8387 21.8986 20.841 21.4513 20.386 21.1744C20.1562 21.0352 19.854 20.9666 19.5519 20.9674V20.9667L14.6984 20.9844L14.7591 18.855L21.5492 18.8903C24.3166 20.6043 28.176 21.6733 32.446 21.6733C33.4027 21.6733 34.3361 21.6133 35.2448 21.5108C35.3323 21.5532 35.4186 21.5963 35.5284 21.6231L40.7995 22.8949L41.1331 23.8995L41.5228 25.0723L34.9544 24.5064ZM43.7944 24.7423L43.1096 22.6786L46.2736 21.2479L47.102 21.9134L48.3445 22.9124L43.7944 24.7423ZM52.0055 20.9921L50.1726 22.0321L48.1356 20.3944L49.9544 19.5502C50.2939 19.392 50.7221 19.3276 51.1421 19.3608C51.5644 19.3968 51.9378 19.5304 52.1921 19.7374C52.6658 20.1239 52.5853 20.6629 52.0055 20.9921Z" fill="#212121"/>
<path d="M29.7547 24.705L25.0669 21.8789C24.6131 21.6041 23.8757 21.6041 23.4207 21.8789L18.7341 24.705C18.5148 24.8385 18.3911 25.0179 18.3911 25.2059C18.3911 25.3938 18.5136 25.574 18.7341 25.7068L23.4207 28.5328C23.6482 28.6699 23.9469 28.7384 24.2444 28.7384C24.5419 28.7384 24.8405 28.6699 25.0669 28.5328L29.7547 25.7068C29.974 25.574 30.0988 25.3938 30.0988 25.2059C30.0988 25.0179 29.9751 24.8378 29.7547 24.705ZM24.2444 27.0351L21.211 25.2059L24.2444 23.3767L27.2789 25.2059L24.2444 27.0351Z" fill="#212121"/>
<path d="M37.547 6.8569L36.9834 8.22898C37.1386 8.25233 40.7845 8.82743 40.7845 11.0756H43.1179C43.1178 8.40343 39.4743 7.14727 37.547 6.8569Z" fill="#212121"/>
<path d="M43.1176 12.4883H40.7842V13.9013H43.1176V12.4883Z" fill="#212121"/>
</svg>
