<svg width="70" height="43" viewBox="0 0 70 43" fill="none" xmlns="http://www.w3.org/2000/svg">
<g clip-path="url(#clip0)">
<path d="M68.4614 20.4092C68.4576 9.2123 53.4656 0.137324 34.9754 0.139588C16.4858 0.141852 1.50017 9.22104 1.50391 20.4179C1.50711 29.2377 10.9252 37.0443 24.7995 39.727C24.9319 39.7522 25.0697 39.7652 25.2081 39.7648C25.4719 39.7645 25.7304 39.7218 25.9573 39.6407C26.2527 39.5349 26.4732 39.3667 26.5768 39.1685L35.0315 22.9409C37.3429 22.9338 39.2068 21.7931 39.1945 20.3937C39.1827 18.9939 37.2997 17.8652 34.9883 17.8723C34.3666 17.874 33.753 17.9606 33.1944 18.1259L22.0251 11.3611C21.4707 11.037 20.5879 11.0464 20.0528 11.3818C19.5305 11.7094 19.5305 12.2281 20.0528 12.5558L31.2162 19.3238C30.3596 20.3827 30.8493 21.6608 32.3895 22.3827L24.3338 37.8457C8.41354 34.2943 0.261689 23.6 6.12618 13.959C11.9907 4.31809 29.6503 -0.618493 45.5706 2.93291C61.4909 6.48431 69.6427 17.1789 63.7782 26.8196C60.913 31.5298 55.0261 35.3389 47.4548 37.3819L46.5842 34.8991C46.4251 34.4428 45.6844 34.151 44.9308 34.2477C44.6932 34.2785 44.4726 34.346 44.291 34.444L35.8978 38.9819C35.322 39.292 35.2708 39.826 35.7835 40.1746C35.9501 40.2878 36.1637 40.3719 36.403 40.4181L47.1188 42.4893C47.8521 42.6319 48.6377 42.3877 48.8732 41.9434C48.948 41.803 48.9603 41.6536 48.9101 41.5093L48.0545 39.0731C60.4452 35.9098 68.4902 28.5521 68.4614 20.4092V20.4092ZM34.9829 19.5644C35.753 19.5644 36.3779 19.9428 36.3779 20.4092C36.3779 20.8759 35.753 21.254 34.9829 21.254C34.2123 21.254 33.588 20.8759 33.588 20.4092C33.588 19.9428 34.2123 19.5644 34.9829 19.5644ZM39.5774 39.2548L44.3551 36.674L45.6737 40.4366L39.5774 39.2548Z" fill="#212121"/>
<path d="M33.5879 4.35873V6.04824C33.5879 6.51493 34.2122 6.893 34.9828 6.893C35.753 6.893 36.3778 6.51493 36.3778 6.04824V4.35873C36.3778 3.89237 35.753 3.51398 34.9828 3.51398C34.2122 3.51398 33.5879 3.89237 33.5879 4.35873Z" fill="#2196F3"/>
<path d="M8.47894 19.5643C7.7083 19.5643 7.08398 19.9427 7.08398 20.4091C7.08398 20.8757 7.7083 21.2538 8.47894 21.2538H11.2689C12.0395 21.2538 12.6638 20.8757 12.6638 20.4091C12.6638 19.9427 12.0395 19.5643 11.2689 19.5643H8.47894Z" fill="#2196F3"/>
<path d="M61.4866 21.2538C62.2573 21.2538 62.8816 20.8757 62.8816 20.4091C62.8816 19.9427 62.2573 19.5643 61.4866 19.5643H58.6967C57.9266 19.5643 57.3018 19.9427 57.3018 20.4091C57.3018 20.8757 57.9266 21.2538 58.6967 21.2538H61.4866Z" fill="#2196F3"/>
</g>
<defs>
<clipPath id="clip0">
<rect width="70" height="42.3904" fill="white" transform="translate(0 0.139587)"/>
</clipPath>
</defs>
</svg>
