<svg width="70" height="43" viewBox="0 0 70 43" fill="none" xmlns="http://www.w3.org/2000/svg">
<g clip-path="url(#clip0)">
<path d="M32.6494 19.9632H34.9815V26.3185H32.6494V19.9632Z" fill="#2196F3"/>
<path d="M41.978 22.7877H44.3101V26.3183H41.978V22.7877Z" fill="#2196F3"/>
<path d="M23.3213 24.906H25.6534V26.3182H23.3213V24.906Z" fill="#2196F3"/>
<path d="M16.3247 24.1999H18.6568V26.3183H16.3247V24.1999Z" fill="#2196F3"/>
<path d="M3.49817 37.6164H59.4689C61.4007 37.6164 62.967 36.6679 62.967 35.498V32.6734C62.967 31.5035 61.4007 30.555 59.4689 30.555H58.3028V12.9454L64.9262 9.14573C66.4635 9.60465 68.3242 9.32606 69.3302 8.48511C70.3369 7.6445 70.1957 6.48703 68.9966 5.74503C67.7975 5.00303 65.8901 4.89235 64.4798 5.48299C63.0701 6.07396 62.569 7.1942 63.2933 8.13514L58.3028 11V9.37088C58.3028 8.20099 56.7365 7.25247 54.8046 7.25247H8.16239C6.23054 7.25247 4.66422 8.20099 4.66422 9.37088V30.555H3.49817C1.56632 30.555 0 31.5035 0 32.6734V35.498C0 36.6679 1.56632 37.6164 3.49817 37.6164ZM66.4652 6.54633C67.1091 6.54633 67.6313 6.86251 67.6313 7.25247C67.6313 7.64243 67.1091 7.95861 66.4652 7.95861C65.8212 7.95861 65.2991 7.64243 65.2991 7.25247C65.2991 6.86251 65.8212 6.54633 66.4652 6.54633ZM6.99634 9.37088C6.99634 8.98092 7.51844 8.66474 8.16239 8.66474H54.8046C55.4486 8.66474 55.9707 8.98092 55.9707 9.37088V12.3365L53.6386 13.6784V10.7832C53.6386 10.3932 53.1165 10.077 52.4725 10.077H10.4945C9.85055 10.077 9.32845 10.3932 9.32845 10.7832V28.4366C9.32845 28.8266 9.85055 29.1427 10.4945 29.1427H52.4725C53.1165 29.1427 53.6386 28.8266 53.6386 28.4366V15.621L55.9707 14.2828V30.555H6.99634V9.37088ZM17.4908 18.5507C15.9131 18.5479 14.5279 19.1844 14.1083 20.1053C13.6886 21.0263 14.3383 22.0031 15.6951 22.4906C17.0513 22.9782 18.7793 22.8558 19.9129 22.1913L23.9662 23.423C24.4371 23.5657 25.0081 23.4988 25.3583 23.2606L33.9745 17.3904L42.4443 21.2339C42.8987 21.44 43.5329 21.418 43.9452 21.1818L51.3065 16.9591V27.7305H11.6606V11.4893H51.3065V15.0134L43.0564 19.7447L34.5154 15.8671C34.0303 15.6472 33.3476 15.6885 32.9445 15.9626L24.2099 21.9141L20.9446 20.9253C20.9685 20.8404 20.9833 20.7549 20.989 20.6691C20.989 19.4992 19.4227 18.5507 17.4908 18.5507ZM18.6569 20.6691C18.6569 21.059 18.1348 21.3752 17.4908 21.3752C16.8469 21.3752 16.3248 21.059 16.3248 20.6691C16.3248 20.2791 16.8469 19.9629 17.4908 19.9629C18.1348 19.9629 18.6569 20.2791 18.6569 20.6691ZM25.6532 31.9673H37.3138V32.6734C37.3138 33.0634 36.7917 33.3796 36.1477 33.3796H26.8193C26.1753 33.3796 25.6532 33.0634 25.6532 32.6734V31.9673ZM2.33211 32.6734C2.33211 32.2835 2.85422 31.9673 3.49817 31.9673H23.3211V32.6734C23.3211 33.8433 24.8874 34.7918 26.8193 34.7918H36.1477C38.0796 34.7918 39.6459 33.8433 39.6459 32.6734V31.9673H59.4689C60.1128 31.9673 60.6349 32.2835 60.6349 32.6734V35.498C60.6349 35.8879 60.1128 36.2041 59.4689 36.2041H3.49817C2.85422 36.2041 2.33211 35.8879 2.33211 35.498V32.6734Z" fill="#212121"/>
</g>
<defs>
<clipPath id="clip0">
<rect width="70" height="42.3904" fill="white" transform="translate(0 0.139587)"/>
</clipPath>
</defs>
</svg>
