<svg width="66" height="43" viewBox="0 0 66 43" fill="none" xmlns="http://www.w3.org/2000/svg">
<path d="M65.3163 29.4123L46.8468 18.1456L48.8966 12.0315C49.4256 12.1566 49.9879 12.2219 50.5556 12.2244H50.5696C53.1777 12.243 55.3169 10.9779 55.3479 9.39845C55.3788 7.81906 53.2894 6.52359 50.6813 6.50486C48.0732 6.48623 45.934 7.75141 45.9031 9.33081C45.8965 9.66878 45.9888 10.0047 46.176 10.3232L35.326 11.1251L17.6276 0.35154C17.4105 0.217392 17.1141 0.141089 16.804 0.139587C16.4977 0.140559 16.2044 0.214389 15.9873 0.345181L12.6786 2.33753C12.2232 2.61342 12.2232 3.06064 12.6786 3.33653L14.459 4.43021C7.56162 12.1107 9.80191 21.6219 19.9703 27.8283C20.0636 27.8824 20.1718 27.9261 20.29 27.9576C20.2165 28.1967 20.1781 28.4393 20.1756 28.6825V36.878H6.17562C2.95562 36.8803 0.346077 38.4605 0.342285 40.4105V41.8235C0.342285 42.2137 0.86466 42.53 1.50895 42.53H55.1756C55.8199 42.53 56.3423 42.2137 56.3423 41.8235V40.4105C56.3385 38.4605 53.729 36.8803 50.509 36.878H36.509V33.2458C38.7021 33.5244 40.9367 33.6664 43.1776 33.6697C48.5548 33.6662 53.8464 32.8544 58.5776 31.3072L60.3673 32.3973C60.5844 32.5314 60.8808 32.6077 61.191 32.6093C61.4972 32.6083 61.7905 32.5344 62.0076 32.4037L65.3163 30.4113C65.7717 30.1354 65.7717 29.6882 65.3163 29.4123ZM48.9246 8.39654C49.8383 7.84617 51.3157 7.84864 52.2244 8.40193C53.1332 8.95521 53.1291 9.84991 52.2155 10.4002C51.7781 10.6636 51.1864 10.8115 50.5695 10.8114H50.5625C49.2739 10.8073 48.2345 10.1715 48.2412 9.39104C48.2445 9.01747 48.4918 8.65998 48.9291 8.39654H48.9246V8.39654ZM46.1783 13.039L44.8693 16.941L42.298 15.3747L46.1783 13.039ZM44.853 11.8443L40.653 14.3729L37.4038 12.3947L44.853 11.8443ZM50.509 38.291C52.442 38.291 54.009 39.2399 54.009 40.4105V41.117H2.67562V40.4105C2.67562 39.2399 4.2426 38.291 6.17562 38.291H50.509ZM34.1756 35.465V36.878H22.509V35.465H34.1756ZM22.509 34.0519V28.6825C22.509 26.9685 25.1258 25.5739 28.3423 25.5739C31.5588 25.5739 34.1756 26.9685 34.1756 28.6825V34.0519H22.509ZM36.509 31.8052V28.6825C36.509 26.1892 32.8456 24.1608 28.3423 24.1608C25.4306 24.1338 22.7079 25.0313 21.165 26.5269C12.2887 20.8654 10.2899 12.4252 16.1805 5.48122L56.872 30.2644C50.5886 32.2 43.3857 32.745 36.509 31.8052ZM61.2038 30.8995L59.56 29.8984L16.7923 3.8431L15.1415 2.84127L16.7923 1.8451L34.15 12.4159C34.1581 12.4159 34.1628 12.425 34.171 12.4286L62.8593 29.9033L61.2038 30.8995Z" fill="#212121"/>
<path d="M28.3527 26.9867H28.3422C26.4091 26.9849 24.8398 27.9324 24.8369 29.103C24.834 30.2736 26.3986 31.224 28.3317 31.2258H28.3422C30.2752 31.2275 31.8445 30.28 31.8474 29.1094C31.8503 27.9388 30.2857 26.9885 28.3527 26.9867ZM29.1693 29.6071C28.9497 29.7394 28.6521 29.8134 28.3422 29.8127C27.6979 29.8107 27.1783 29.4928 27.1816 29.1026C27.1832 28.9158 27.3069 28.7371 27.5255 28.6053C27.7426 28.4745 28.0359 28.4007 28.3422 28.3997C28.9865 28.4017 29.5061 28.7197 29.5027 29.1098C29.5011 29.2966 29.3774 29.4754 29.1588 29.6071H29.1693Z" fill="#2196F3"/>
</svg>
