<svg width="80" height="44" viewBox="0 0 80 44" fill="none" xmlns="http://www.w3.org/2000/svg">
<path d="M12.4016 13.7141H12.3989C10.1367 13.7141 8.30273 15.533 8.30273 17.7767V17.7794C8.30273 20.0231 10.1367 21.842 12.3989 21.842H12.4016C14.6639 21.842 16.4978 20.0231 16.4978 17.7794V17.7767C16.4978 15.533 14.6639 13.7141 12.4016 13.7141Z" fill="#2196F3"/>
<path d="M42.637 12.4153C42.6305 9.29875 41.3797 6.31165 39.158 4.10768C36.9364 1.9037 33.925 0.66235 30.7829 0.655273V0.655273C27.6397 0.660935 24.6269 1.90166 22.4042 4.10579C20.1814 6.30991 18.9298 9.29782 18.9233 12.4153V29.6013C18.9233 29.6013 42.6343 26.982 42.637 12.418V12.4153Z" fill="#2196F3"/>
<path d="M0 35.2421C0.005699 37.4106 0.87655 39.4887 2.42226 41.0223C3.96797 42.556 6.06286 43.4204 8.24918 43.4268C10.435 43.4204 12.5295 42.5563 14.0751 41.0233C15.6208 39.4902 16.4919 37.4128 16.4984 35.2447V23.2864C16.4984 23.2864 0 25.1103 0 35.2421ZM8.24918 37.3846C7.82193 37.3846 7.40428 37.259 7.04905 37.0236C6.69381 36.7881 6.41693 36.4535 6.25343 36.062C6.08993 35.6705 6.04716 35.2397 6.13051 34.8241C6.21386 34.4084 6.41959 34.0267 6.7217 33.727C7.02381 33.4274 7.40871 33.2233 7.82775 33.1406C8.24678 33.058 8.68112 33.1004 9.07584 33.2626C9.47056 33.4247 9.80793 33.6993 10.0453 34.0517C10.2827 34.404 10.4094 34.8183 10.4094 35.2421C10.4104 35.5241 10.3553 35.8036 10.2473 36.0645C10.1392 36.3253 9.98022 36.5625 9.77952 36.7623C9.57883 36.9621 9.34033 37.1206 9.07771 37.2288C8.8151 37.337 8.53354 37.3927 8.24918 37.3927V37.3846Z" fill="#2196F3"/>
<path d="M25.0889 35.9792H23.4014V37.7224H22.5225V33.4568H25.2998V34.1687H23.4014V35.2703H25.0889V35.9792ZM29.3135 35.6863C29.3135 36.1062 29.2393 36.4744 29.0908 36.7908C28.9424 37.1072 28.7295 37.3513 28.4521 37.5232C28.1768 37.6951 27.8604 37.781 27.5029 37.781C27.1494 37.781 26.834 37.696 26.5566 37.5261C26.2793 37.3562 26.0645 37.114 25.9121 36.7996C25.7598 36.4832 25.6826 36.1199 25.6807 35.7097V35.4988C25.6807 35.0789 25.7559 34.7097 25.9062 34.3914C26.0586 34.071 26.2725 33.8259 26.5479 33.656C26.8252 33.4841 27.1416 33.3982 27.4971 33.3982C27.8525 33.3982 28.168 33.4841 28.4434 33.656C28.7207 33.8259 28.9346 34.071 29.085 34.3914C29.2373 34.7097 29.3135 35.0779 29.3135 35.4958V35.6863ZM28.4229 35.4929C28.4229 35.0457 28.3428 34.7058 28.1826 34.4734C28.0225 34.241 27.7939 34.1248 27.4971 34.1248C27.2021 34.1248 26.9746 34.24 26.8145 34.4705C26.6543 34.699 26.5732 35.0349 26.5713 35.4783V35.6863C26.5713 36.1218 26.6514 36.4597 26.8115 36.7C26.9717 36.9402 27.2021 37.0603 27.5029 37.0603C27.7979 37.0603 28.0244 36.9451 28.1826 36.7146C28.3408 36.4822 28.4209 36.1443 28.4229 35.7009V35.4929ZM32.1641 36.6033C32.1641 36.4373 32.1055 36.3103 31.9883 36.2224C31.8711 36.1326 31.6602 36.0388 31.3555 35.9412C31.0508 35.8416 30.8096 35.7439 30.6318 35.6482C30.1475 35.3865 29.9053 35.0339 29.9053 34.5906C29.9053 34.3601 29.9697 34.155 30.0986 33.9753C30.2295 33.7937 30.416 33.6521 30.6582 33.5505C30.9023 33.449 31.1758 33.3982 31.4785 33.3982C31.7832 33.3982 32.0547 33.4539 32.293 33.5652C32.5312 33.6746 32.7158 33.8298 32.8467 34.031C32.9795 34.2322 33.0459 34.4607 33.0459 34.7166H32.167C32.167 34.5212 32.1055 34.3699 31.9824 34.2625C31.8594 34.1531 31.6865 34.0984 31.4639 34.0984C31.249 34.0984 31.082 34.1443 30.9629 34.2361C30.8438 34.3259 30.7842 34.4451 30.7842 34.5935C30.7842 34.7322 30.8535 34.8484 30.9922 34.9421C31.1328 35.0359 31.3389 35.1238 31.6104 35.2058C32.1104 35.3562 32.4746 35.5427 32.7031 35.7654C32.9316 35.988 33.0459 36.2654 33.0459 36.5974C33.0459 36.9666 32.9062 37.2566 32.627 37.4675C32.3477 37.6765 31.9717 37.781 31.499 37.781C31.1709 37.781 30.8721 37.7214 30.6025 37.6023C30.333 37.4812 30.127 37.3162 29.9844 37.1072C29.8438 36.8982 29.7734 36.656 29.7734 36.3806H30.6553C30.6553 36.8513 30.9365 37.0867 31.499 37.0867C31.708 37.0867 31.8711 37.0447 31.9883 36.9607C32.1055 36.8748 32.1641 36.7556 32.1641 36.6033ZM36.8545 34.1687H35.5479V37.7224H34.6689V34.1687H33.3799V33.4568H36.8545V34.1687ZM39.9248 35.8738H38.2373V37.0164H40.2178V37.7224H37.3584V33.4568H40.2119V34.1687H38.2373V35.1853H39.9248V35.8738ZM42.3125 36.1609H41.6123V37.7224H40.7334V33.4568H42.3184C42.8223 33.4568 43.2109 33.5691 43.4844 33.7937C43.7578 34.0183 43.8945 34.3357 43.8945 34.7458C43.8945 35.0369 43.8311 35.28 43.7041 35.4753C43.5791 35.6687 43.3887 35.823 43.1328 35.9382L44.0557 37.6814V37.7224H43.1123L42.3125 36.1609ZM41.6123 35.449H42.3213C42.542 35.449 42.7129 35.3933 42.834 35.282C42.9551 35.1687 43.0156 35.0134 43.0156 34.8162C43.0156 34.615 42.958 34.4568 42.8428 34.3416C42.7295 34.2263 42.5547 34.1687 42.3184 34.1687H41.6123V35.449ZM46.9385 36.2195V37.7224H46.0596V33.4568H47.7236C48.0439 33.4568 48.3252 33.5154 48.5674 33.6326C48.8115 33.7498 48.999 33.9167 49.1299 34.1335C49.2607 34.3484 49.3262 34.5935 49.3262 34.8689C49.3262 35.2869 49.1826 35.6169 48.8955 35.8591C48.6104 36.0994 48.2148 36.2195 47.709 36.2195H46.9385ZM46.9385 35.5076H47.7236C47.9561 35.5076 48.1328 35.4529 48.2539 35.3435C48.377 35.2341 48.4385 35.0779 48.4385 34.8748C48.4385 34.6658 48.377 34.4968 48.2539 34.3679C48.1309 34.239 47.9609 34.1726 47.7441 34.1687H46.9385V35.5076ZM52.499 35.8738H50.8115V37.0164H52.792V37.7224H49.9326V33.4568H52.7861V34.1687H50.8115V35.1853H52.499V35.8738ZM56.5771 34.1687H55.2705V37.7224H54.3916V34.1687H53.1025V33.4568H56.5771V34.1687ZM59.6475 35.8738H57.96V37.0164H59.9404V37.7224H57.0811V33.4568H59.9346V34.1687H57.96V35.1853H59.6475V35.8738ZM62.0352 36.1609H61.335V37.7224H60.4561V33.4568H62.041C62.5449 33.4568 62.9336 33.5691 63.207 33.7937C63.4805 34.0183 63.6172 34.3357 63.6172 34.7458C63.6172 35.0369 63.5537 35.28 63.4268 35.4753C63.3018 35.6687 63.1113 35.823 62.8555 35.9382L63.7783 37.6814V37.7224H62.835L62.0352 36.1609ZM61.335 35.449H62.0439C62.2646 35.449 62.4355 35.3933 62.5566 35.282C62.6777 35.1687 62.7383 35.0134 62.7383 34.8162C62.7383 34.615 62.6807 34.4568 62.5654 34.3416C62.4521 34.2263 62.2773 34.1687 62.041 34.1687H61.335V35.449ZM66.5 36.6033C66.5 36.4373 66.4414 36.3103 66.3242 36.2224C66.207 36.1326 65.9961 36.0388 65.6914 35.9412C65.3867 35.8416 65.1455 35.7439 64.9678 35.6482C64.4834 35.3865 64.2412 35.0339 64.2412 34.5906C64.2412 34.3601 64.3057 34.155 64.4346 33.9753C64.5654 33.7937 64.752 33.6521 64.9941 33.5505C65.2383 33.449 65.5117 33.3982 65.8145 33.3982C66.1191 33.3982 66.3906 33.4539 66.6289 33.5652C66.8672 33.6746 67.0518 33.8298 67.1826 34.031C67.3154 34.2322 67.3818 34.4607 67.3818 34.7166H66.5029C66.5029 34.5212 66.4414 34.3699 66.3184 34.2625C66.1953 34.1531 66.0225 34.0984 65.7998 34.0984C65.585 34.0984 65.418 34.1443 65.2988 34.2361C65.1797 34.3259 65.1201 34.4451 65.1201 34.5935C65.1201 34.7322 65.1895 34.8484 65.3281 34.9421C65.4688 35.0359 65.6748 35.1238 65.9463 35.2058C66.4463 35.3562 66.8105 35.5427 67.0391 35.7654C67.2676 35.988 67.3818 36.2654 67.3818 36.5974C67.3818 36.9666 67.2422 37.2566 66.9629 37.4675C66.6836 37.6765 66.3076 37.781 65.835 37.781C65.5068 37.781 65.208 37.7214 64.9385 37.6023C64.6689 37.4812 64.4629 37.3162 64.3203 37.1072C64.1797 36.8982 64.1094 36.656 64.1094 36.3806H64.9912C64.9912 36.8513 65.2725 37.0867 65.835 37.0867C66.0439 37.0867 66.207 37.0447 66.3242 36.9607C66.4414 36.8748 66.5 36.7556 66.5 36.6033Z" fill="#2196F3"/>
</svg>
