<svg width="41" height="45" viewBox="0 0 41 45" fill="none" xmlns="http://www.w3.org/2000/svg">
<path d="M6.3456 43.1931C6.36062 43.1935 6.3754 43.1968 6.38909 43.2027C6.40278 43.2087 6.4151 43.2173 6.42534 43.228L6.6311 43.4475C6.47138 43.6252 6.27397 43.7673 6.05238 43.8641C5.79289 43.9697 5.51322 44.0208 5.23189 44.0138C4.96752 44.0191 4.70486 43.9715 4.46026 43.8741C4.23962 43.7846 4.04138 43.6502 3.87897 43.4799C3.7132 43.3034 3.58553 43.0964 3.50344 42.8713C3.41355 42.6203 3.36916 42.3561 3.37226 42.0905C3.36862 41.8231 3.4166 41.5574 3.51373 41.3072C3.60358 41.0806 3.73912 40.8737 3.9124 40.6985C4.08804 40.5267 4.29814 40.3917 4.52971 40.3019C4.78303 40.2066 5.0528 40.1592 5.32448 40.1622C5.57685 40.1562 5.82787 40.1995 6.06267 40.2894C6.26638 40.3751 6.45343 40.4941 6.61567 40.6411L6.44334 40.8756C6.43144 40.8921 6.41664 40.9065 6.39962 40.918C6.37928 40.9315 6.35471 40.9377 6.33017 40.9355C6.30347 40.9337 6.27774 40.9251 6.25558 40.9105L6.16298 40.8482L6.03438 40.7683C5.97886 40.7387 5.92128 40.7129 5.86205 40.691C5.78576 40.6645 5.70752 40.6437 5.62799 40.6286C5.52705 40.6106 5.42453 40.6023 5.32191 40.6037C5.12627 40.6013 4.93212 40.6369 4.7509 40.7085C4.5819 40.7747 4.42935 40.8751 4.30336 41.0028C4.17511 41.1387 4.07627 41.2982 4.01271 41.4718C3.94028 41.6704 3.90457 41.8798 3.90726 42.0905C3.90417 42.3044 3.93986 42.5172 4.01271 42.7191C4.07548 42.8912 4.17248 43.0497 4.29822 43.1856C4.41602 43.3122 4.56204 43.4112 4.72518 43.4749C4.89308 43.5424 5.07329 43.5764 5.25503 43.5747C5.36002 43.5763 5.46496 43.5696 5.56883 43.5548C5.73844 43.5347 5.90114 43.4775 6.04467 43.3876C6.11666 43.3416 6.18462 43.2898 6.24786 43.233C6.2743 43.2085 6.30908 43.1943 6.3456 43.1931Z" fill="#AFB1B8"/>
<path d="M12.2872 42.09C12.2904 42.3547 12.2433 42.6177 12.1483 42.8658C12.0645 43.0908 11.9324 43.2961 11.7608 43.4681C11.5892 43.64 11.382 43.7748 11.1529 43.8635C10.6493 44.0497 10.0926 44.0497 9.58898 43.8635C9.36127 43.7734 9.15541 43.6384 8.98453 43.4669C8.81306 43.2918 8.68005 43.0847 8.59356 42.8583C8.40827 42.3559 8.40827 41.8067 8.59356 41.3044C8.6813 41.0778 8.81415 40.8701 8.98453 40.6933C9.15686 40.5272 9.36262 40.3973 9.58898 40.3116C10.0919 40.122 10.6499 40.122 11.1529 40.3116C11.3813 40.4016 11.5881 40.5367 11.7599 40.7082C11.9292 40.8816 12.0613 41.086 12.1483 41.3093C12.2436 41.5591 12.2907 41.8238 12.2872 42.09ZM11.747 42.09C11.7511 41.8783 11.718 41.6675 11.6493 41.4665C11.5916 41.2943 11.4979 41.1355 11.3741 41.0001C11.2535 40.8719 11.105 40.7714 10.9394 40.7057C10.5734 40.5693 10.1684 40.5693 9.80247 40.7057C9.63686 40.7714 9.48837 40.8719 9.36778 41.0001C9.24216 41.1347 9.14748 41.2937 9.08998 41.4665C8.95911 41.8725 8.95911 42.3076 9.08998 42.7136C9.14804 42.8862 9.24266 43.045 9.36778 43.18C9.48853 43.3074 9.63702 43.4071 9.80247 43.4719C10.169 43.6048 10.5728 43.6048 10.9394 43.4719C11.1048 43.4071 11.2533 43.3074 11.3741 43.18C11.4974 43.0442 11.591 42.8856 11.6493 42.7136C11.7183 42.5127 11.7514 42.3018 11.747 42.09Z" fill="#AFB1B8"/>
<path d="M16.3408 42.7438L16.3948 42.8835C16.4154 42.8336 16.4334 42.7887 16.454 42.7438C16.4736 42.6969 16.4959 42.6511 16.5208 42.6066L17.8352 40.2897C17.8609 40.2498 17.8841 40.2248 17.9098 40.2173C17.9448 40.207 17.9814 40.2028 18.0179 40.2049H18.4062V43.9734H17.9458V41.2025C17.9458 41.1676 17.9458 41.1277 17.9458 41.0853C17.9433 41.0421 17.9433 40.9988 17.9458 40.9556L16.6237 43.305C16.607 43.3402 16.5801 43.3699 16.5463 43.3907C16.5126 43.4115 16.4734 43.4224 16.4334 43.4222H16.3588C16.3187 43.4227 16.2794 43.4119 16.2456 43.3911C16.2118 43.3703 16.185 43.3404 16.1685 43.305L14.8078 40.9406C14.8078 40.9855 14.8078 41.0304 14.8078 41.0753C14.8078 41.1202 14.8078 41.1601 14.8078 41.195V43.9659H14.3628V40.2049H14.7512C14.7877 40.2028 14.8243 40.207 14.8592 40.2173C14.8911 40.2327 14.9166 40.2582 14.9312 40.2897L16.2739 42.6091C16.3003 42.652 16.3227 42.6971 16.3408 42.7438Z" fill="#AFB1B8"/>
<path d="M21.2869 42.5566V43.9683H20.7725V40.2047H21.9197C22.1362 40.2007 22.3522 40.2284 22.5601 40.287C22.7266 40.3328 22.881 40.4127 23.0129 40.5215C23.1271 40.6234 23.2152 40.7498 23.2701 40.8906C23.3308 41.0441 23.3605 41.2075 23.3575 41.3719C23.3598 41.537 23.3274 41.7008 23.2624 41.8533C23.2005 41.9977 23.1055 42.1265 22.9846 42.2299C22.8526 42.3432 22.6974 42.4282 22.5293 42.4793C22.329 42.5414 22.1196 42.5708 21.9094 42.5666L21.2869 42.5566ZM21.2869 42.1526H21.9094C22.0446 42.1543 22.1792 42.1349 22.3081 42.0952C22.4144 42.0605 22.5124 42.0054 22.5962 41.9331C22.6734 41.8641 22.7333 41.7788 22.7711 41.6837C22.8132 41.5832 22.8342 41.4755 22.8328 41.367C22.8388 41.2623 22.8212 41.1577 22.7812 41.0604C22.7412 40.963 22.6798 40.8753 22.6013 40.8033C22.4048 40.6545 22.1579 40.5825 21.9094 40.6013H21.2869V42.1526Z" fill="#AFB1B8"/>
<path d="M28.2011 43.9733H27.7947C27.754 43.9748 27.7139 43.9624 27.6816 43.9383C27.6524 43.9149 27.6294 43.8849 27.6147 43.851L27.2649 42.9406H25.5082L25.1455 43.851C25.1322 43.8843 25.11 43.9136 25.0812 43.9359C25.0485 43.9614 25.0074 43.9747 24.9655 43.9733H24.5591L26.1023 40.2043H26.6373L28.2011 43.9733ZM25.6548 42.574H27.1054L26.4933 41.0399C26.4465 40.9245 26.4078 40.8062 26.3775 40.6857L26.3184 40.8828C26.3004 40.9427 26.2798 40.9975 26.2618 41.0424L25.6548 42.574Z" fill="#AFB1B8"/>
<path d="M30.4234 40.2219C30.4541 40.2382 30.4805 40.2613 30.5005 40.2892L32.7512 43.1302C32.7512 43.0853 32.7512 43.0404 32.7512 42.998C32.7512 42.9556 32.7512 42.9132 32.7512 42.8733V40.2044H33.2116V43.9733H32.9544C32.9179 43.9744 32.8816 43.9667 32.8489 43.9508C32.8171 43.9329 32.7892 43.9092 32.7666 43.881L30.5185 41.0425C30.521 41.0857 30.521 41.129 30.5185 41.1722C30.5185 41.2146 30.5185 41.252 30.5185 41.2869V43.9733H30.0581V40.2044H30.3308C30.3626 40.2036 30.3942 40.2095 30.4234 40.2219Z" fill="#AFB1B8"/>
<path d="M37.0028 42.4743V43.9707H36.4883V42.4743L35.0659 40.2047H35.5263C35.566 40.2024 35.6052 40.2139 35.6369 40.2371C35.6649 40.2613 35.6884 40.29 35.7064 40.3219L36.5964 41.7859C36.6324 41.8483 36.6632 41.9057 36.689 41.9605C36.7147 42.0154 36.7353 42.0678 36.7533 42.1201L36.8201 41.958C36.8451 41.8987 36.8743 41.8412 36.9076 41.7859L37.7847 40.312C37.8031 40.2825 37.8256 40.2557 37.8516 40.2322C37.8821 40.2063 37.9217 40.1929 37.9622 40.1947H38.4277L37.0028 42.4743Z" fill="#AFB1B8"/>
<path d="M16.0864 33.8804C16.3102 33.9078 16.5366 33.9302 16.7655 33.9502C20.2361 32.4447 23.1721 29.9806 25.2065 26.866C27.2409 23.7514 28.2834 20.1244 28.2038 16.4384L24.379 12.7295C25.1567 16.6539 24.7929 20.7108 23.3284 24.4462C21.8639 28.1816 19.3564 31.4481 16.0864 33.8804Z" fill="#AFB1B8"/>
<path d="M14.7202 33.7073L14.8231 33.7273C18.3174 31.3038 20.9814 27.9195 22.4708 24.0121C23.9602 20.1046 24.2063 15.8538 23.1775 11.8093L17.7296 6.52686C19.9331 10.8689 20.8201 15.7284 20.2873 20.54C19.7546 25.3516 17.8241 29.9178 14.7202 33.7073Z" fill="#AFB1B8"/>
<path d="M33.1964 20.7935C32.2708 24.8434 30.023 28.4959 26.7866 31.2087C25.8414 32.0053 24.8219 32.715 23.7412 33.3286C26.3765 32.5775 28.7988 31.2496 30.8212 29.4473C32.8436 27.645 34.4121 25.4164 35.4058 22.9334L33.1964 20.7935Z" fill="#AFB1B8"/>
<path d="M32.3292 20.197L29.1835 17.1467C29.1233 20.6244 28.1037 24.023 26.2306 26.9893C24.3575 29.9556 21.6993 32.3814 18.5322 34.0144H18.5477C19.2534 34.0141 19.9586 33.9733 20.6594 33.8922C23.6192 32.7208 26.2339 30.8571 28.2702 28.4674C30.3064 26.0777 31.7009 23.2364 32.3292 20.197Z" fill="#AFB1B8"/>
<path d="M15.1757 4.29924L11.4229 0.655273C8.06811 1.91236 5.1828 4.12228 3.14465 6.99578C1.1065 9.86929 0.0104687 13.2725 0 16.76H0C0.0125737 20.6137 1.3502 24.3531 3.80117 27.3866C6.25215 30.4201 9.67645 32.5743 13.5321 33.5083C16.9741 29.442 18.9892 24.4174 19.2848 19.1647C19.5804 13.9119 18.141 8.70452 15.1757 4.29924Z" fill="#AFB1B8"/>
<path d="M40.9998 19.6359C40.9862 15.0638 39.1072 10.6827 35.773 7.44979C32.4389 4.21684 27.9208 2.39476 23.2057 2.3816C21.0269 2.37941 18.8666 2.76927 16.8345 3.53139L39.8115 25.8113C40.5982 23.8418 41.0012 21.7479 40.9998 19.6359Z" fill="#AFB1B8"/>
</svg>
