<svg width="89" height="47" viewBox="0 0 89 47" fill="none" xmlns="http://www.w3.org/2000/svg">
<path d="M44.7404 22.3526C44.3225 21.7316 44.1225 20.9977 44.1699 20.2589V17.2233C44.1699 16.2927 44.359 15.5856 44.7372 15.1018C45.1154 14.618 45.765 14.3771 46.6859 14.3792C47.5513 14.3792 48.1655 14.585 48.5288 14.9968C48.925 15.5221 49.1178 16.1646 49.0736 16.8126V17.5259H47.5256V16.8033C47.5311 16.5668 47.5161 16.3303 47.4807 16.0961C47.4585 15.9361 47.3805 15.788 47.2596 15.6762C47.1006 15.5556 46.9004 15.4972 46.6987 15.5125C46.4866 15.4972 46.2763 15.5589 46.109 15.6854C45.9742 15.8093 45.8843 15.9717 45.8526 16.1486C45.8082 16.3964 45.7878 16.6476 45.7917 16.899V20.5831C45.7673 20.9385 45.8356 21.2942 45.9904 21.6176C46.0674 21.7271 46.1743 21.8138 46.2993 21.8683C46.4243 21.9229 46.5626 21.943 46.6987 21.9265C46.897 21.9422 47.0938 21.8823 47.2468 21.7597C47.3729 21.6391 47.4541 21.4816 47.4775 21.3119C47.5137 21.0675 47.5298 20.8207 47.5256 20.5739V19.8266H49.0736V20.509C49.1171 21.1845 48.929 21.855 48.5384 22.4175C48.1826 22.8683 47.5769 23.0938 46.6859 23.0938C45.7949 23.0938 45.1218 22.8529 44.7404 22.3526Z" fill="#AFB1B8"/>
<path d="M51.1856 22.3835C50.7946 21.911 50.5991 21.2224 50.5991 20.3114V17.1183C50.5991 16.2166 50.7946 15.5341 51.1856 15.0709C51.5766 14.6077 52.2304 14.3771 53.147 14.3792C54.0572 14.3792 54.7078 14.6097 55.0988 15.0709C55.4898 15.5341 55.6885 16.2166 55.6885 17.1183V20.3114C55.6885 21.2131 55.4898 21.9048 55.0924 22.3804C54.695 22.856 54.0476 23.0938 53.147 23.0938C52.2464 23.0938 51.5798 22.8529 51.1856 22.3835ZM53.8681 21.6176C54.0081 21.3217 54.0719 20.9975 54.054 20.6727V16.7632C54.072 16.4447 54.0093 16.1267 53.8713 15.8367C53.7928 15.725 53.6832 15.6368 53.5551 15.5822C53.4271 15.5276 53.2856 15.5088 53.147 15.5279C53.0079 15.5093 52.8662 15.5283 52.7377 15.5828C52.6093 15.6374 52.4991 15.7253 52.4195 15.8367C52.2786 16.1259 52.2147 16.4443 52.2336 16.7632V20.6912C52.2141 21.0161 52.278 21.3407 52.4195 21.6362C52.5097 21.7358 52.6211 21.8156 52.746 21.8703C52.8709 21.925 53.0066 21.9533 53.1438 21.9533C53.281 21.9533 53.4167 21.925 53.5416 21.8703C53.6665 21.8156 53.7779 21.7358 53.8681 21.6362V21.6176Z" fill="#AFB1B8"/>
<path d="M57.55 14.4724H59.2166L60.4698 20.364L61.7518 14.4724H63.3735L63.537 22.9763H62.3383L62.2101 17.0662L60.973 22.9763H60.0115L58.7295 17.0446L58.6109 22.9763H57.3994L57.55 14.4724Z" fill="#AFB1B8"/>
<path d="M65.4051 14.4724H68.0012C69.4969 14.4724 70.2448 15.2773 70.2448 16.8871C70.2448 18.429 69.4574 19.1989 67.8826 19.1968H66.998V22.9763H65.3955L65.4051 14.4724ZM67.623 18.1068C67.7814 18.1262 67.9422 18.1122 68.0943 18.0658C68.2465 18.0194 68.3864 17.9417 68.5044 17.8382C68.6882 17.5509 68.7692 17.2136 68.7352 16.8778C68.7435 16.6184 68.7177 16.359 68.6583 16.1059C68.6354 16.0213 68.5953 15.942 68.5403 15.8725C68.4852 15.8031 68.4164 15.7449 68.3377 15.7014C68.1153 15.5986 67.8694 15.5518 67.623 15.5655H67.0012V18.1068H67.623Z" fill="#AFB1B8"/>
<path d="M72.556 14.4724H74.277L76.043 22.9763H74.5495L74.2001 21.0155H72.6649L72.306 22.9763H70.79L72.556 14.4724ZM74.027 20.0305L73.4277 16.461L72.8284 20.0305H74.027Z" fill="#AFB1B8"/>
<path d="M77.469 14.4724H78.5907L80.738 19.3234V14.4724H82.068V22.9763H81.0008L78.8407 17.9123V22.9763H77.4658L77.469 14.4724Z" fill="#AFB1B8"/>
<path d="M85.1835 19.7339L83.3984 14.4844H84.9015L85.9911 17.8564L87.0134 14.4844H88.4844L86.7218 19.7339V22.9763H85.1835V19.7339Z" fill="#AFB1B8"/>
<path d="M47.2147 26.6943V27.139H45.9071V30.5942H45.359V27.139H44.0449V26.6943H47.2147Z" fill="#AFB1B8"/>
<path d="M51.3134 30.5947H50.8903C50.8474 30.5973 50.805 30.584 50.7717 30.5577C50.7397 30.535 50.7153 30.5039 50.7012 30.4681L50.3231 29.5417H48.5092L48.131 30.4681C48.1203 30.5069 48.1006 30.5427 48.0733 30.5731C48.0398 30.599 47.9977 30.6121 47.9548 30.6102H47.5317L49.1341 26.71H49.6917L51.3134 30.5947ZM48.6598 29.1464H50.1725L49.5315 27.5592C49.4842 27.4391 49.4446 27.3164 49.4129 27.1917C49.3905 27.2658 49.3713 27.3368 49.352 27.3986L49.2944 27.5623L48.6598 29.1464Z" fill="#AFB1B8"/>
<path d="M54.0766 30.2115C54.1769 30.2165 54.2775 30.2165 54.3778 30.2115C54.4645 30.2028 54.5502 30.1874 54.6342 30.1651C54.7127 30.1466 54.7898 30.1228 54.865 30.0941C54.9355 30.0663 55.006 30.0323 55.0797 29.9984V29.1213H54.4387C54.4229 29.1222 54.407 29.1199 54.3921 29.1146C54.3772 29.1093 54.3636 29.101 54.3522 29.0904C54.3417 29.0817 54.3333 29.0707 54.3278 29.0584C54.3222 29.0461 54.3196 29.0328 54.3201 29.0194V28.7199H55.5636V30.2145C55.4621 30.2845 55.3549 30.3465 55.2431 30.3998C55.1288 30.4541 55.0098 30.4986 54.8874 30.5326C54.7563 30.5698 54.6223 30.5966 54.4868 30.6129C54.3314 30.6295 54.1752 30.6378 54.0189 30.6376C53.7425 30.6399 53.4682 30.5906 53.2113 30.4925C52.9713 30.3995 52.7533 30.2609 52.5703 30.0848C52.3919 29.907 52.2514 29.6972 52.1569 29.4672C52.0559 29.2087 52.0059 28.9343 52.0095 28.6581C52.0061 28.3802 52.055 28.104 52.1537 27.8428C52.2459 27.6117 52.3866 27.4014 52.5671 27.2252C52.75 27.0497 52.9681 26.9121 53.2081 26.8206C53.4825 26.7211 53.7738 26.6719 54.0669 26.6755C54.2161 26.6753 54.3651 26.6867 54.5124 26.7094C54.6427 26.7299 54.7705 26.763 54.8938 26.8083C55.0059 26.8488 55.1133 26.9006 55.2143 26.9627C55.3125 27.0236 55.4057 27.0918 55.4931 27.1665L55.3393 27.4074C55.3272 27.4294 55.3093 27.4479 55.2873 27.4609C55.2653 27.4739 55.2401 27.481 55.2143 27.4815C55.1788 27.4804 55.1444 27.4697 55.1149 27.4506C55.0669 27.4259 55.0156 27.395 54.9579 27.358C54.8897 27.3168 54.8179 27.2817 54.7432 27.253C54.6476 27.216 54.549 27.1871 54.4483 27.1665C54.3141 27.1427 54.1778 27.1313 54.0413 27.1325C53.8299 27.1303 53.6199 27.167 53.4228 27.2406C53.2444 27.3095 53.0837 27.4149 52.9517 27.5494C52.8189 27.6896 52.7174 27.8547 52.6536 28.0343C52.5105 28.4567 52.5105 28.912 52.6536 29.3344C52.7238 29.5178 52.8329 29.6851 52.9741 29.8254C53.1055 29.9592 53.2651 30.0645 53.442 30.1342C53.6458 30.2017 53.8618 30.2279 54.0766 30.2115Z" fill="#AFB1B8"/>
<path d="M59.1846 30.1496H60.9346V30.5942H58.6494V26.6943H59.1975L59.1846 30.1496Z" fill="#AFB1B8"/>
<path d="M62.7552 30.5942H62.207V26.6943H62.7552V30.5942Z" fill="#AFB1B8"/>
<path d="M64.7939 26.7127C64.8264 26.7306 64.8548 26.7548 64.8772 26.7837L67.2199 29.7238C67.2167 29.6775 67.2167 29.6311 67.2199 29.5848C67.2199 29.5416 67.2199 29.4984 67.2199 29.4582V26.6787H67.6974V30.5947H67.4218C67.381 30.5979 67.34 30.5905 67.3032 30.5731C67.2699 30.5537 67.2406 30.5286 67.2167 30.499L64.8772 27.562C64.8772 27.6083 64.8772 27.6515 64.8772 27.6948C64.8772 27.738 64.8772 27.7782 64.8772 27.8152V30.5947H64.4189V26.6942H64.7042C64.7351 26.6942 64.7657 26.7005 64.7939 26.7127Z" fill="#AFB1B8"/>
<path d="M71.7328 26.6943V27.1236H69.7906V28.4113H71.3642V28.825H69.7906V30.156H71.7328V30.5852H69.2266V26.6943H71.7328Z" fill="#AFB1B8"/>
<path d="M14.3035 2.60829L38.6386 9.26597V32.5957L14.3035 25.9411V2.60829ZM12.7427 0.619629V27.0743L40.1962 34.5874V8.13577L12.7427 0.619629Z" fill="#AFB1B8"/>
<path d="M27.4565 46.8679L0 39.3486V12.8967L27.4565 20.4129V46.8679Z" fill="#AFB1B8"/>
<path d="M13.1979 2.30873L37.2156 8.88296L27.0015 18.7273L2.98058 12.15L13.1979 2.30873ZM12.7428 0.619629L0 12.8973L27.4566 20.4133L40.1962 8.13568L12.7428 0.619629Z" fill="#AFB1B8"/>
<path d="M29.001 45.3799L40.1957 34.5907L29.001 31.5244V45.3799Z" fill="#AFB1B8"/>
</svg>
