<svg width="45" height="51" viewBox="0 0 45 51" fill="none" xmlns="http://www.w3.org/2000/svg">
<path d="M6 0.584229L13.3076 7.62518H33.6924V27.2662L41 34.3071V0.584229H6Z" fill="#AFB1B8"/>
<path d="M0 7.32837V40.0884H34V27.0665L13.5231 7.33648L0 7.32837ZM27.5231 35.2964H5.38008V13.2636H6.9453V33.8045H27.5231V35.2964Z" fill="#AFB1B8"/>
<path d="M9.79102 46.1084L10.6089 44.4238H11.2925L10.1011 46.6699V47.9785H9.48096V46.6699L8.28711 44.4238H8.97314L9.79102 46.1084ZM13.3018 47.1509H11.9248L11.6367 47.9785H10.9946L12.3374 44.4238H12.8916L14.2368 47.9785H13.5923L13.3018 47.1509ZM12.0981 46.6528H13.1284L12.6133 45.1782L12.0981 46.6528ZM15.7358 47.019C15.7358 46.8547 15.7806 46.7041 15.8701 46.5674C15.9596 46.429 16.1362 46.2655 16.3999 46.0767C16.2616 45.9025 16.1647 45.7544 16.1094 45.6323C16.0557 45.5103 16.0288 45.3923 16.0288 45.2783C16.0288 45 16.1134 44.7803 16.2827 44.6191C16.452 44.4564 16.6799 44.375 16.9663 44.375C17.2251 44.375 17.4367 44.4515 17.6011 44.6045C17.7671 44.7559 17.8501 44.9438 17.8501 45.1685C17.8501 45.3166 17.8127 45.4533 17.7378 45.5786C17.6629 45.7023 17.54 45.826 17.3691 45.9497L17.1274 46.1255L17.8135 46.936C17.9128 46.7407 17.9624 46.5234 17.9624 46.2842H18.4775C18.4775 46.722 18.375 47.0809 18.1699 47.3608L18.6924 47.9785H18.0039L17.8037 47.7417C17.5498 47.9321 17.2471 48.0273 16.8955 48.0273C16.5439 48.0273 16.2624 47.9346 16.0508 47.749C15.8408 47.5618 15.7358 47.3185 15.7358 47.019ZM16.9126 47.5537C17.1128 47.5537 17.3 47.487 17.4741 47.3535L16.6978 46.438L16.6221 46.4917C16.4268 46.6398 16.3291 46.8091 16.3291 46.9995C16.3291 47.1639 16.382 47.2974 16.4878 47.3999C16.5936 47.5024 16.7352 47.5537 16.9126 47.5537ZM16.5854 45.2637C16.5854 45.4004 16.6693 45.5721 16.8369 45.7788L17.1079 45.5933L17.1836 45.5322C17.2845 45.4427 17.335 45.328 17.335 45.188C17.335 45.0952 17.3 45.0163 17.23 44.9512C17.16 44.8844 17.0713 44.8511 16.9639 44.8511C16.8483 44.8511 16.7563 44.8901 16.688 44.9683C16.6196 45.0464 16.5854 45.1449 16.5854 45.2637ZM23.043 46.8213C23.0072 47.2005 22.8672 47.4967 22.623 47.71C22.3789 47.9215 22.0542 48.0273 21.6489 48.0273C21.3657 48.0273 21.1159 47.9606 20.8994 47.8271C20.6846 47.6921 20.5186 47.5008 20.4014 47.2534C20.2842 47.006 20.2231 46.7188 20.2183 46.3916V46.0596C20.2183 45.7243 20.2777 45.4289 20.3965 45.1733C20.5153 44.9178 20.6854 44.7209 20.9067 44.5825C21.1297 44.4442 21.3869 44.375 21.6782 44.375C22.0705 44.375 22.3862 44.4816 22.6255 44.6948C22.8647 44.908 23.0039 45.2091 23.043 45.5981H22.4277C22.3984 45.3426 22.3236 45.1587 22.2031 45.0464C22.0843 44.9325 21.9093 44.8755 21.6782 44.8755C21.4097 44.8755 21.203 44.974 21.0581 45.1709C20.9149 45.3662 20.8416 45.6535 20.8384 46.0327V46.3477C20.8384 46.7318 20.9067 47.0247 21.0435 47.2266C21.1818 47.4284 21.3836 47.5293 21.6489 47.5293C21.8914 47.5293 22.0737 47.4748 22.1958 47.3657C22.3179 47.2567 22.3952 47.0752 22.4277 46.8213H23.043ZM26.4341 46.2939C26.4341 46.6423 26.3739 46.9482 26.2534 47.2119C26.133 47.474 25.9604 47.6758 25.7358 47.8174C25.5129 47.9574 25.2557 48.0273 24.9644 48.0273C24.6763 48.0273 24.4191 47.9574 24.1929 47.8174C23.9683 47.6758 23.7941 47.4748 23.6704 47.2144C23.5483 46.9539 23.4865 46.6536 23.4849 46.3135V46.1133C23.4849 45.7666 23.5459 45.4606 23.668 45.1953C23.7917 44.93 23.965 44.7274 24.188 44.5874C24.4126 44.4458 24.6698 44.375 24.9595 44.375C25.2492 44.375 25.5055 44.445 25.7285 44.585C25.9531 44.7233 26.1265 44.9235 26.2485 45.1855C26.3706 45.446 26.4325 45.7495 26.4341 46.0962V46.2939ZM25.8164 46.1084C25.8164 45.7145 25.7415 45.4126 25.5918 45.2026C25.4437 44.9927 25.2329 44.8877 24.9595 44.8877C24.6925 44.8877 24.4834 44.9927 24.332 45.2026C24.1823 45.411 24.1058 45.7064 24.1025 46.0889V46.2939C24.1025 46.6846 24.1782 46.9865 24.3296 47.1997C24.4826 47.4129 24.6942 47.5195 24.9644 47.5195C25.2378 47.5195 25.4478 47.4154 25.5942 47.207C25.7424 46.9987 25.8164 46.6943 25.8164 46.2939V46.1084Z" fill="#AFB1B8"/>
</svg>
